<svg height="511pt" viewBox="-32 1 511 511.99899" width="511pt" xmlns="http://www.w3.org/2000/svg"><path d="m230.03125 71.660156c-119.484375-3.074218-218.839844 91.296875-221.910156 210.785156-3.070313 119.484376 91.300781 218.839844 210.785156 221.910157 119.488281 3.070312 218.839844-91.300781 221.910156-210.785157 3.074219-119.488281-91.300781-218.839843-210.785156-221.910156zm0 0" fill="#dc8839"/><path d="m240.195312 109.71875c-98.476562-8.667969-185.335937 64.136719-194.007812 162.613281-8.667969 98.476563 64.136719 185.335938 162.613281 194.007813 98.476563 8.667968 185.339844-64.136719 194.007813-162.613282 8.667968-98.476562-64.136719-185.335937-162.613282-194.007812zm0 0" fill="#fefefe"/><path d="m126.59375 7.558594h195.757812v36.976562h-195.757812zm0 0" fill="#b9744a"/><path d="m230.042969 71.6875c-7.003907-.183594-13.933594-.015625-20.785157.460938 114.964844 7.914062 204.3125 105.136718 201.316407 221.449218-2.894531 112.480469-91.117188 202.6875-201.128907 210.308594 3.132813.21875 6.285157.382812 9.453126.464844 119.484374 3.074218 218.835937-91.289063 221.914062-210.773438 3.078125-119.480468-91.289062-218.835937-210.769531-221.910156zm0 0" fill="#ac5a28"/><path d="m240.160156 109.726562c-10.484375-.921874-20.835937-.914062-30.976562-.054687.246094.019531.492187.03125.738281.054687 98.472656 8.664063 171.277344 95.515626 162.613281 193.988282-7.742187 87.988281-77.910156 155.472656-163.011718 162.667968 98.167968 8.234376 184.605468-64.441406 193.25-162.667968 8.664062-98.472656-64.140626-185.324219-162.613282-193.988282zm0 0" fill="#e1e0db"/><path d="m292.113281 7.558594h30.238281v36.976562h-30.238281zm0 0" fill="#ac5a28"/><path d="m124.808594 236.710938c1.476562 1.472656 3.410156 2.210937 5.34375 2.210937s3.871094-.734375 5.347656-2.210937l9.425781-9.429688 9.425781 9.429688c1.476563 1.476562 3.410157 2.210937 5.347657 2.210937 1.933593 0 3.867187-.734375 5.34375-2.210937 2.953125-2.953126 2.953125-7.738282 0-10.691407l-9.425781-9.425781 9.425781-9.429688c2.953125-2.949218 2.953125-7.738281 0-10.6875-2.953125-2.953124-7.738281-2.953124-10.6875 0l-9.429688 9.425782-9.425781-9.425782c-2.953125-2.953124-7.738281-2.953124-10.691406 0-2.953125 2.953126-2.953125 7.738282 0 10.6875l9.425781 9.429688-9.425781 9.425781c-2.953125 2.953125-2.953125 7.738281 0 10.691407zm0 0"/><path d="m204.351562 236.710938c1.476563 1.472656 3.414063 2.210937 5.347657 2.210937 1.933593 0 3.871093-.734375 5.347656-2.210937l9.425781-9.429688 9.425782 9.429688c1.476562 1.476562 3.410156 2.210937 5.347656 2.210937 1.933594 0 3.867187-.734375 5.34375-2.210937 2.953125-2.953126 2.953125-7.738282 0-10.691407l-9.425782-9.425781 9.425782-9.429688c2.953125-2.949218 2.953125-7.738281 0-10.6875-2.953125-2.953124-7.738282-2.953124-10.691406 0l-9.425782 9.425782-9.425781-9.425782c-2.953125-2.953124-7.738281-2.953124-10.691406 0-2.953125 2.953126-2.953125 7.738282 0 10.6875l9.425781 9.429688-9.425781 9.425781c-2.953125 2.953125-2.953125 7.738281-.003907 10.691407zm0 0"/><path d="m283.902344 236.710938c1.476562 1.472656 3.410156 2.210937 5.34375 2.210937s3.871094-.734375 5.347656-2.210937l9.425781-9.429688 9.425781 9.429688c1.476563 1.476562 3.410157 2.210937 5.347657 2.210937 1.933593 0 3.867187-.734375 5.34375-2.210937 2.953125-2.953126 2.953125-7.738282 0-10.691407l-9.425781-9.425781 9.425781-9.429688c2.953125-2.949218 2.953125-7.738281 0-10.6875-2.953125-2.953124-7.738281-2.953124-10.691407 0l-9.425781 9.425782-9.425781-9.425782c-2.953125-2.953124-7.738281-2.953124-10.691406 0-2.953125 2.953126-2.953125 7.738282 0 10.6875l9.425781 9.429688-9.425781 9.425781c-2.953125 2.953125-2.953125 7.738281 0 10.691407zm0 0"/><path d="m124.808594 308.144531c1.476562 1.476563 3.410156 2.214844 5.34375 2.214844s3.871094-.738281 5.347656-2.214844l9.425781-9.425781 9.425781 9.425781c1.476563 1.476563 3.410157 2.214844 5.347657 2.214844 1.933593 0 3.867187-.738281 5.34375-2.214844 2.953125-2.953125 2.953125-7.738281 0-10.691406l-9.425781-9.425781 9.425781-9.425782c2.953125-2.953124 2.953125-7.738281 0-10.691406s-7.738281-2.953125-10.6875 0l-9.429688 9.425782-9.425781-9.425782c-2.953125-2.953125-7.738281-2.953125-10.691406 0s-2.953125 7.738282 0 10.691406l9.425781 9.425782-9.425781 9.425781c-2.953125 2.953125-2.953125 7.738281 0 10.691406zm0 0"/><path d="m204.351562 308.144531c1.476563 1.476563 3.414063 2.214844 5.347657 2.214844 1.933593 0 3.871093-.738281 5.347656-2.214844l9.425781-9.425781 9.425782 9.425781c1.476562 1.476563 3.410156 2.214844 5.347656 2.214844 1.933594 0 3.867187-.738281 5.34375-2.214844 2.953125-2.953125 2.953125-7.738281 0-10.691406l-9.425782-9.425781 9.425782-9.425782c2.953125-2.953124 2.953125-7.738281 0-10.691406s-7.738282-2.953125-10.691406 0l-9.425782 9.425782-9.425781-9.425782c-2.953125-2.953125-7.738281-2.953125-10.691406 0s-2.953125 7.738282 0 10.691406l9.425781 9.425782-9.425781 9.425781c-2.953125 2.953125-2.953125 7.738281-.003907 10.691406zm0 0"/><path d="m283.902344 308.144531c1.476562 1.476563 3.410156 2.214844 5.34375 2.214844s3.871094-.738281 5.347656-2.214844l9.425781-9.425781 9.425781 9.425781c1.476563 1.476563 3.410157 2.214844 5.347657 2.214844 1.933593 0 3.867187-.738281 5.34375-2.214844 2.953125-2.953125 2.953125-7.738281 0-10.691406l-9.425781-9.425781 9.425781-9.425782c2.953125-2.953124 2.953125-7.738281 0-10.691406s-7.738281-2.953125-10.691407 0l-9.425781 9.425782-9.425781-9.425782c-2.953125-2.953125-7.738281-2.953125-10.691406 0s-2.953125 7.738282 0 10.691406l9.425781 9.425782-9.425781 9.425781c-2.953125 2.953125-2.953125 7.738281 0 10.691406zm0 0"/><path d="m124.808594 379.578125c1.476562 1.476563 3.410156 2.214844 5.34375 2.214844s3.871094-.738281 5.347656-2.214844l9.425781-9.425781 9.425781 9.425781c1.476563 1.476563 3.414063 2.214844 5.347657 2.214844 1.933593 0 3.867187-.738281 5.34375-2.214844 2.953125-2.953125 2.953125-7.738281 0-10.6875l-9.425781-9.429687 9.425781-9.425782c2.953125-2.953125 2.953125-7.738281 0-10.691406-2.953125-2.949219-7.738281-2.949219-10.6875 0l-9.429688 9.429688-9.425781-9.429688c-2.953125-2.949219-7.738281-2.949219-10.691406 0-2.953125 2.953125-2.953125 7.742188 0 10.691406l9.425781 9.425782-9.425781 9.429687c-2.953125 2.949219-2.953125 7.738281 0 10.6875zm0 0"/><path d="m204.351562 379.578125c1.476563 1.476563 3.414063 2.214844 5.347657 2.214844 1.933593 0 3.871093-.738281 5.347656-2.214844l9.425781-9.425781 9.425782 9.425781c1.476562 1.476563 3.414062 2.214844 5.347656 2.214844s3.867187-.738281 5.34375-2.214844c2.953125-2.953125 2.953125-7.738281 0-10.6875l-9.425782-9.429687 9.425782-9.425782c2.953125-2.953125 2.953125-7.738281 0-10.691406-2.953125-2.949219-7.738282-2.949219-10.691406 0l-9.425782 9.429688-9.425781-9.429688c-2.953125-2.949219-7.738281-2.949219-10.691406 0-2.953125 2.953125-2.953125 7.742188 0 10.691406l9.425781 9.425782-9.425781 9.429687c-2.953125 2.949219-2.953125 7.738281-.003907 10.6875zm0 0"/><path d="m283.902344 379.578125c1.476562 1.476563 3.410156 2.214844 5.34375 2.214844s3.871094-.738281 5.347656-2.214844l9.425781-9.425781 9.425781 9.425781c1.476563 1.476563 3.414063 2.214844 5.347657 2.214844 1.933593 0 3.867187-.738281 5.34375-2.214844 2.953125-2.953125 2.953125-7.738281 0-10.6875l-9.425781-9.429687 9.425781-9.425782c2.953125-2.953125 2.953125-7.738281 0-10.691406-2.953125-2.949219-7.738281-2.949219-10.691407 0l-9.425781 9.429688-9.425781-9.429688c-2.953125-2.949219-7.738281-2.949219-10.691406 0-2.953125 2.953125-2.953125 7.742188 0 10.691406l9.425781 9.425782-9.425781 9.429687c-2.953125 2.949219-2.953125 7.738281 0 10.6875zm0 0"/><path d="m382.84375 129.65625c-22.835938-22.839844-49.742188-40.125-79.074219-51.207031v-26.351563h18.582031c4.175782 0 7.558594-3.386718 7.558594-7.5625v-36.976562c0-4.175782-3.382812-7.558594-7.558594-7.558594h-195.757812c-4.175781 0-7.5625 3.382812-7.5625 7.558594v36.976562c0 4.175782 3.386719 7.5625 7.5625 7.5625h18.578125v26.351563c-29.332031 11.082031-56.234375 28.367187-79.074219 51.203125-42.300781 42.304687-65.597656 98.546875-65.597656 158.375 0 59.824218 23.296875 116.070312 65.597656 158.371094 42.304688 42.304687 98.546875 65.601562 158.375 65.601562 59.824219 0 116.070313-23.296875 158.371094-65.601562 42.304688-42.300782 65.601562-98.546876 65.601562-158.371094 0-59.828125-23.296874-116.070313-65.601562-158.371094zm-222.550781-77.558594h48.210937c4.175782 0 7.558594-3.386718 7.558594-7.5625 0-4.171875-3.382812-7.558594-7.558594-7.558594h-74.351562v-21.859374h180.640625v21.859374h-76.054688c-4.175781 0-7.558593 3.386719-7.558593 7.558594 0 4.175782 3.382812 7.5625 7.558593 7.5625h49.914063v21.25c-20.5625-6.117187-42.125-9.292968-64.179688-9.292968-22.054687 0-43.621094 3.175781-64.183594 9.292968v-21.25zm64.179687 444.785156c-115.164062 0-208.855468-93.691406-208.855468-208.855468 0-115.164063 93.691406-208.855469 208.855468-208.855469 115.160156 0 208.851563 93.691406 208.851563 208.855469 0 115.164062-93.691407 208.855468-208.851563 208.855468zm0 0"/><path d="m224.472656 101.476562c-57.472656 0-110.878906 25.90625-146.523437 71.070313-2.585938 3.28125-2.023438 8.03125 1.25 10.617187 3.28125 2.589844 8.03125 2.027344 10.617187-1.25 32.761719-41.511718 81.839844-65.316406 134.65625-65.316406 94.527344 0 171.429688 76.902344 171.429688 171.429688s-76.902344 171.429687-171.429688 171.429687-171.433594-76.902343-171.433594-171.429687c0-27.566406 6.34375-53.886719 18.847657-78.230469 1.910156-3.710937.445312-8.269531-3.265625-10.175781-3.71875-1.910156-8.273438-.445313-10.179688 3.269531-13.617187 26.5-20.519531 55.144531-20.519531 85.136719 0 102.863281 83.683594 186.550781 186.550781 186.550781 102.863282 0 186.546875-83.6875 186.546875-186.550781 0-102.863282-83.683593-186.550782-186.546875-186.550782zm0 0"/></svg>